<?xml version="1.0" encoding="utf-8"?>
<!-- Generator: Adobe Illustrator 16.0.0, SVG Export Plug-In . SVG Version: 6.00 Build 0)  -->
<!DOCTYPE svg PUBLIC "-//W3C//DTD SVG 1.1//EN" "http://www.w3.org/Graphics/SVG/1.1/DTD/svg11.dtd">
<svg version="1.1" id="Layer_1" xmlns="http://www.w3.org/2000/svg" xmlns:xlink="http://www.w3.org/1999/xlink" x="0px" y="0px"
	 width="240px" height="240px" viewBox="0 0 240 240" enable-background="new 0 0 240 240" xml:space="preserve">
<circle stroke="#000000" stroke-width="0.5" stroke-miterlimit="10" cx="120" cy="120" r="120"/>
<g>
	<g>
		<path d="M123,53c1.935,0,1.935-3,0-3S121.065,53,123,53L123,53z"/>
	</g>
</g>
<g>
	<g>
		<path d="M114.5,30.5c1.935,0,1.935-3,0-3S112.565,30.5,114.5,30.5L114.5,30.5z"/>
	</g>
</g>
<g>
	<g>
		<path d="M122,37.5c0.897,13.416,11.568,24.03,11.5,37.5c-0.01,1.935,2.99,1.934,3,0c0.069-13.615-10.604-24.097-11.5-37.5
			C124.872,35.58,121.871,35.568,122,37.5L122,37.5z"/>
	</g>
</g>
<g>
	<g>
		<path d="M128,28c1.935,0,1.935-3,0-3S126.065,28,128,28L128,28z"/>
	</g>
</g>
<polygon fill="#EEEEEE" stroke="#000000" stroke-miterlimit="10" points="0,120 240,120 120,0 120,240 "/>
<path fill="#336666" stroke="#000000" stroke-miterlimit="10" d="M207.589,202.018"/>
<g>
	<g>
		<path d="M38.5,43c1.935,0,1.935-3,0-3S36.565,43,38.5,43L38.5,43z"/>
	</g>
</g>
<g>
	<g>
		<path d="M42.5,52.5c1.935,0,1.935-3,0-3S40.565,52.5,42.5,52.5L42.5,52.5z"/>
	</g>
</g>
<g>
	<g>
		<path d="M59.205,61.257c7.227,9.991,12.83,21.112,21.735,29.804c1.385,1.352,3.507-0.768,2.121-2.121
			c-8.719-8.511-14.19-19.415-21.265-29.196C60.673,58.191,58.068,59.687,59.205,61.257L59.205,61.257z"/>
	</g>
</g>
</svg>
