<?xml version="1.0" encoding="utf-8"?>
<!-- Generator: Adobe Illustrator 16.0.0, SVG Export Plug-In . SVG Version: 6.00 Build 0)  -->
<!DOCTYPE svg PUBLIC "-//W3C//DTD SVG 1.1//EN" "http://www.w3.org/Graphics/SVG/1.1/DTD/svg11.dtd">
<svg version="1.1" id="Layer_1" xmlns="http://www.w3.org/2000/svg" xmlns:xlink="http://www.w3.org/1999/xlink" x="0px" y="0px"
	 width="76px" height="76px" viewBox="0 0 76 76" enable-background="new 0 0 76 76" xml:space="preserve">
<g>
	<polygon fill="#F47920" points="59.365,38.624 23.45,30.851 13,42.406 49.588,50.324 	"/>
	<linearGradient id="SVGID_1_" gradientUnits="userSpaceOnUse" x1="31.2319" y1="31.1255" x2="38.7007" y2="45.2919">
		<stop  offset="0" style="stop-color:#9E001A"/>
		<stop  offset="1" style="stop-color:#FFFFFF"/>
	</linearGradient>
	<polygon opacity="0.8" fill="url(#SVGID_1_)" points="59.365,38.624 23.45,30.851 13,42.406 49.588,50.324 	"/>
	<path fill="#F47920" d="M25.498,62.012c0,0,18.879-1.762,18.879,13.898c0,0,2.078-21.588-7.664-21.588L25.498,62.012z"/>
	<linearGradient id="SVGID_2_" gradientUnits="userSpaceOnUse" x1="25.498" y1="65.1162" x2="44.5625" y2="65.1162">
		<stop  offset="0" style="stop-color:#9E001A"/>
		<stop  offset="1" style="stop-color:#FFFFFF"/>
	</linearGradient>
	<path opacity="0.8" fill="url(#SVGID_2_)" d="M25.498,62.012c0,0,18.879-1.762,18.879,13.898c0,0,2.078-21.588-7.664-21.588
		L25.498,62.012z"/>
	<path fill="#FFCE00" d="M55.66,30.38L13,42.406c0,0,0-5.806,0-12.949c0-7.781,8.523-10.212,8.523-10.212
		C63.07,10.472,63.07,0.09,63.07,0.09v20.157C63.07,20.248,63.391,28.166,55.66,30.38z"/>
	<linearGradient id="SVGID_3_" gradientUnits="userSpaceOnUse" x1="13" y1="21.248" x2="63.0723" y2="21.248">
		<stop  offset="0" style="stop-color:#FF7F00"/>
		<stop  offset="1" style="stop-color:#FFFFFF"/>
	</linearGradient>
	<path opacity="0.2" fill="url(#SVGID_3_)" d="M55.66,30.38L13,42.406c0,0,0-5.806,0-12.949c0-7.781,8.523-10.212,8.523-10.212
		C63.07,10.472,63.07,0.09,63.07,0.09v20.157C63.07,20.248,63.391,28.166,55.66,30.38z"/>
	<path fill="#FFCE00" d="M51.953,54.234c-9.229,2.039-26.455,7.785-26.455,7.785s0-1.406,0-8.551c0-7.143,8.521-8.492,8.521-8.492
		l25.346-6.345v7.736C59.365,46.367,59.559,52.561,51.953,54.234z"/>
	<linearGradient id="SVGID_4_" gradientUnits="userSpaceOnUse" x1="25.498" y1="50.3252" x2="59.3652" y2="50.3252">
		<stop  offset="0" style="stop-color:#FF7F00"/>
		<stop  offset="1" style="stop-color:#FFFFFF"/>
	</linearGradient>
	<path opacity="0.2" fill="url(#SVGID_4_)" d="M51.953,54.234c-9.229,2.039-26.455,7.785-26.455,7.785s0-1.406,0-8.551
		c0-7.143,8.521-8.492,8.521-8.492l25.346-6.345v7.736C59.365,46.367,59.559,52.561,51.953,54.234z"/>
</g>
</svg>
