<?xml version="1.0" encoding="utf-8"?>
<!-- Generator: Adobe Illustrator 16.0.0, SVG Export Plug-In . SVG Version: 6.00 Build 0)  -->
<!DOCTYPE svg PUBLIC "-//W3C//DTD SVG 1.1//EN" "http://www.w3.org/Graphics/SVG/1.1/DTD/svg11.dtd">
<svg version="1.1" id="Layer_1" xmlns="http://www.w3.org/2000/svg" xmlns:xlink="http://www.w3.org/1999/xlink" x="0px" y="0px"
	 width="16px" height="16px" viewBox="0 0 16 16" enable-background="new 0 0 16 16" xml:space="preserve">
<g>
	<path fill="#FFFFFF" d="M8,13.516c-3.366,0-6.104-2.738-6.104-6.104c0-3.366,2.738-6.104,6.104-6.104
		c3.367,0,6.105,2.738,6.105,6.104C14.104,10.777,11.366,13.516,8,13.516z"/>
	<path fill="#07153D" d="M8,2.308c2.82,0,5.105,2.285,5.105,5.104c0,2.819-2.285,5.104-5.105,5.104
		c-2.817,0-5.104-2.285-5.104-5.104C2.896,4.593,5.182,2.308,8,2.308 M8,0.308c-3.917,0-7.104,3.187-7.104,7.104
		S4.083,14.516,8,14.516c3.917,0,7.105-3.188,7.105-7.104S11.917,0.308,8,0.308L8,0.308z"/>
</g>
<path fill="#23345C" d="M10.356,8.483L9.253,7.378l1.104-1.104c0.266-0.265,0.266-0.691,0-0.955L10.06,5.021
	C9.794,4.758,9.368,4.757,9.104,5.021L8,6.125L6.897,5.021c-0.265-0.264-0.692-0.263-0.956,0l-0.299,0.3
	c-0.264,0.263-0.264,0.69,0,0.954l1.104,1.104L5.642,8.483c-0.264,0.264-0.264,0.691,0,0.956l0.299,0.297
	C6.205,10,6.631,10,6.895,9.736L8,8.632l1.104,1.104C9.368,10,9.794,10,10.06,9.736l0.297-0.297
	C10.622,9.175,10.622,8.747,10.356,8.483z"/>
</svg>
